<svg width="24" height="24" fill="none" xmlns="http://www.w3.org/2000/svg"><path d="M12 2c5.523 0 10 4.477 10 10s-4.477 10-10 10S2 17.523 2 12 6.477 2 12 2zm4.442 6c-.381.007-.966.207-3.779 1.363-.985.404-2.954 1.241-5.907 2.511-.48.189-.73.373-.753.553-.044.346.46.453 1.094.657.517.166 1.213.36 1.575.368.328.007.694-.127 1.098-.4 2.76-1.84 4.183-2.769 4.273-2.789.063-.014.15-.032.21.02.059.052.053.15.046.177-.05.211-2.641 2.538-2.79 2.691l-.072.072c-.55.543-1.105.897-.147 1.521.866.563 1.37.922 2.26 1.5.57.368 1.017.805 1.605.752.271-.025.55-.276.693-1.026.335-1.77.995-5.608 1.147-7.19a1.739 1.739 0 00-.017-.393.42.42 0 00-.144-.27c-.121-.098-.309-.118-.392-.117z" fill="#272937"/></svg>