<svg width="24" height="24" fill="none" xmlns="http://www.w3.org/2000/svg"><path fill-rule="evenodd" clip-rule="evenodd" d="M12 22C6.477 22 2 17.523 2 12S6.477 2 12 2s10 4.477 10 10-4.477 10-10 10zm.48-14.193c.04.003.08.006.11.01 2.25.359 3.287 1.459 3.574 3.8.004.035.005.074.005.117v.024c.004.183.01.563.406.57h.012a.382.382 0 00.294-.114c.123-.133.115-.33.108-.49v-.002a1.293 1.293 0 01-.003-.105c.028-2.395-1.98-4.567-4.298-4.647h-.028a.189.189 0 01-.027.003 1.2 1.2 0 01-.078-.004h-.004a1.459 1.459 0 00-.12-.006c-.37 0-.44.27-.448.432-.02.373.329.4.497.412zm3.575 6.837a7.187 7.187 0 01-.143-.115 14.203 14.203 0 00-.728-.551l-.032-.023a57.332 57.332 0 01-.158-.114c-.324-.234-.615-.35-.89-.35-.37 0-.693.213-.96.63-.118.184-.262.274-.438.274a.848.848 0 01-.353-.091c-1.045-.49-1.792-1.24-2.22-2.23-.205-.48-.14-.792.225-1.047.206-.144.59-.413.563-.928-.03-.585-1.281-2.345-1.808-2.545a.996.996 0 00-.698-.002c-.605.21-1.04.58-1.257 1.067-.21.472-.2 1.025.028 1.6.657 1.667 1.58 3.119 2.746 4.317 1.14 1.173 2.542 2.133 4.166 2.855.143.063.293.098.404.124l.008.002.095.024a.159.159 0 00.04.006h.013c.764 0 1.68-.72 1.963-1.542.247-.72-.204-1.075-.566-1.36v-.001zM12.818 9.71c-.13.003-.403.01-.5.296-.043.134-.038.25.017.345.08.14.237.183.378.206.512.085.776.378.828.92.025.254.19.43.402.43.016 0 .032 0 .048-.002.255-.032.378-.225.367-.575.004-.366-.181-.78-.496-1.11-.316-.332-.697-.52-1.044-.51zm.082-1.355c1.525.189 2.756 1.557 2.744 3.049l-.001.001a.813.813 0 00-.002.131c.005.153.015.472-.323.525a.548.548 0 01-.096.008c-.364 0-.385-.349-.395-.516a1.037 1.037 0 00-.01-.122c-.225-1.403-.687-1.9-2.058-2.215a.804.804 0 00-.101-.018l-.016-.002-.008-.001c-.145-.022-.322-.049-.424-.191a.431.431 0 01-.06-.329c.022-.135.105-.361.418-.361.078.002.155.01.232.026l.1.015z" fill="#272937"/></svg>