<svg width="24" height="24" fill="none" xmlns="http://www.w3.org/2000/svg"><path fill-rule="evenodd" clip-rule="evenodd" d="M2.033 11.93c-.016-5.278 4.173-9.668 9.483-9.918 5.835-.276 10.634 4.43 10.452 10.204-.17 5.385-4.693 9.663-10.12 9.58a9.983 9.983 0 01-4.284-1.032L2.53 21.948a.387.387 0 01-.47-.453l1.058-5.1a9.798 9.798 0 01-1.085-4.466zm12.878 1.565l1.93.55a.713.713 0 01.409 1.072c-.377.591-.977 1.314-1.727 1.494-1.321.319-3.352.008-5.887-2.341-2.194-2.034-2.774-3.727-2.637-5.07.077-.763.717-1.45 1.256-1.903a.723.723 0 011.125.256l.812 1.824a.71.71 0 01-.09.726l-.411.53a.694.694 0 00-.056.774c.49.849 2.413 2.545 3.326 2.912a.706.706 0 00.765-.16l.472-.478a.722.722 0 01.713-.186z" fill="#272937"/></svg>